<mxfile host="app.diagrams.net" agent="Mozilla/5.0 (Windows NT 10.0; Win64; x64) AppleWebKit/537.36 (KHTML, like Gecko) Chrome/134.0.0.0 Safari/537.36" version="26.1.3">
  <diagram name="페이지-1" id="6zYiGLpCi4L3Z8N9PTFm">
    <mxGraphModel dx="1235" dy="661" grid="1" gridSize="10" guides="1" tooltips="1" connect="1" arrows="1" fold="1" page="1" pageScale="1" pageWidth="1169" pageHeight="827" math="0" shadow="0">
      <root>
        <mxCell id="0" />
        <mxCell id="1" parent="0" />
        <mxCell id="hS6iOgs_LtcqVkNzkukX-16" value="&amp;lt;Client3 - 사전 정산/정기 등록 키오스크&lt;span style=&quot;background-color: transparent; color: light-dark(rgb(0, 0, 0), rgb(255, 255, 255));&quot;&gt;&amp;gt;&lt;/span&gt;" style="text;html=1;align=center;verticalAlign=middle;resizable=0;points=[];autosize=1;strokeColor=none;fillColor=none;fontSize=14;fontStyle=1" parent="1" vertex="1">
          <mxGeometry x="640" y="670" width="280" height="30" as="geometry" />
        </mxCell>
        <mxCell id="hS6iOgs_LtcqVkNzkukX-18" value="" style="group" parent="1" vertex="1" connectable="0">
          <mxGeometry x="40" y="30" width="310" height="277.25" as="geometry" />
        </mxCell>
        <mxCell id="77pEXItfYRGRTwTqh-JJ-1" value="" style="rounded=0;whiteSpace=wrap;html=1;" parent="hS6iOgs_LtcqVkNzkukX-18" vertex="1">
          <mxGeometry width="310" height="240" as="geometry" />
        </mxCell>
        <mxCell id="77pEXItfYRGRTwTqh-JJ-2" value="주차관리 시스템" style="text;html=1;align=left;verticalAlign=middle;whiteSpace=wrap;rounded=0;fontSize=14;fontStyle=1" parent="hS6iOgs_LtcqVkNzkukX-18" vertex="1">
          <mxGeometry x="10" y="10" width="120" height="30" as="geometry" />
        </mxCell>
        <mxCell id="77pEXItfYRGRTwTqh-JJ-3" value="주차 차량 리스트" style="rounded=0;whiteSpace=wrap;html=1;fontSize=14;fontStyle=1" parent="hS6iOgs_LtcqVkNzkukX-18" vertex="1">
          <mxGeometry x="10" y="40" width="120" height="90" as="geometry" />
        </mxCell>
        <mxCell id="77pEXItfYRGRTwTqh-JJ-4" value="주차 현황(숫자)" style="rounded=0;whiteSpace=wrap;html=1;fontSize=14;fontStyle=1" parent="hS6iOgs_LtcqVkNzkukX-18" vertex="1">
          <mxGeometry x="10" y="140" width="120" height="90" as="geometry" />
        </mxCell>
        <mxCell id="77pEXItfYRGRTwTqh-JJ-7" value="CCTV 화면" style="rounded=0;whiteSpace=wrap;html=1;fontSize=14;fontStyle=1" parent="hS6iOgs_LtcqVkNzkukX-18" vertex="1">
          <mxGeometry x="140" y="40" width="160" height="90" as="geometry" />
        </mxCell>
        <mxCell id="77pEXItfYRGRTwTqh-JJ-8" value="주차 현황(그림)" style="rounded=0;whiteSpace=wrap;html=1;align=center;verticalAlign=middle;fontSize=14;fontStyle=1" parent="hS6iOgs_LtcqVkNzkukX-18" vertex="1">
          <mxGeometry x="140" y="140" width="160" height="90" as="geometry" />
        </mxCell>
        <mxCell id="hS6iOgs_LtcqVkNzkukX-14" value="&amp;lt;Client1 - 주차 관리 화면&amp;gt;" style="text;html=1;align=center;verticalAlign=middle;resizable=0;points=[];autosize=1;strokeColor=none;fillColor=none;fontSize=14;fontStyle=1" parent="hS6iOgs_LtcqVkNzkukX-18" vertex="1">
          <mxGeometry x="60" y="247.25" width="190" height="30" as="geometry" />
        </mxCell>
        <mxCell id="hS6iOgs_LtcqVkNzkukX-54" value="" style="group" parent="1" vertex="1" connectable="0">
          <mxGeometry x="390" y="30" width="210" height="270" as="geometry" />
        </mxCell>
        <mxCell id="hS6iOgs_LtcqVkNzkukX-12" value="" style="rounded=0;whiteSpace=wrap;html=1;" parent="hS6iOgs_LtcqVkNzkukX-54" vertex="1">
          <mxGeometry width="210" height="270" as="geometry" />
        </mxCell>
        <mxCell id="hS6iOgs_LtcqVkNzkukX-13" value="** 주차장" style="text;html=1;align=left;verticalAlign=middle;whiteSpace=wrap;rounded=0;fontStyle=1;fontSize=16;" parent="hS6iOgs_LtcqVkNzkukX-54" vertex="1">
          <mxGeometry x="10" y="10" width="100" height="30" as="geometry" />
        </mxCell>
        <mxCell id="hS6iOgs_LtcqVkNzkukX-20" value="정기 차량 등록" style="text;html=1;align=center;verticalAlign=middle;whiteSpace=wrap;rounded=0;labelBorderColor=none;strokeColor=default;fontSize=14;fontStyle=1" parent="hS6iOgs_LtcqVkNzkukX-54" vertex="1">
          <mxGeometry x="35" y="70" width="145" height="40" as="geometry" />
        </mxCell>
        <mxCell id="hS6iOgs_LtcqVkNzkukX-21" value="정기 차량 기간 연장" style="text;html=1;align=center;verticalAlign=middle;whiteSpace=wrap;rounded=0;labelBorderColor=none;strokeColor=default;fontSize=14;fontStyle=1" parent="hS6iOgs_LtcqVkNzkukX-54" vertex="1">
          <mxGeometry x="35" y="128" width="145" height="40" as="geometry" />
        </mxCell>
        <mxCell id="tHhZRvzUOpwLmbIRdvHh-25" value="요금 사전 정산" style="text;html=1;align=center;verticalAlign=middle;whiteSpace=wrap;rounded=0;labelBorderColor=none;strokeColor=default;fontSize=14;fontStyle=1" vertex="1" parent="hS6iOgs_LtcqVkNzkukX-54">
          <mxGeometry x="35" y="190" width="145" height="40" as="geometry" />
        </mxCell>
        <mxCell id="hS6iOgs_LtcqVkNzkukX-55" value="" style="group" parent="1" vertex="1" connectable="0">
          <mxGeometry x="630" y="30" width="210" height="270" as="geometry" />
        </mxCell>
        <mxCell id="hS6iOgs_LtcqVkNzkukX-22" value="" style="rounded=0;whiteSpace=wrap;html=1;" parent="hS6iOgs_LtcqVkNzkukX-55" vertex="1">
          <mxGeometry width="210" height="270" as="geometry" />
        </mxCell>
        <mxCell id="hS6iOgs_LtcqVkNzkukX-23" value="정기 차량 등록" style="text;html=1;align=left;verticalAlign=middle;whiteSpace=wrap;rounded=0;fontStyle=1;fontSize=16;" parent="hS6iOgs_LtcqVkNzkukX-55" vertex="1">
          <mxGeometry x="10" y="10" width="120" height="30" as="geometry" />
        </mxCell>
        <mxCell id="hS6iOgs_LtcqVkNzkukX-24" value="" style="rounded=0;whiteSpace=wrap;html=1;" parent="hS6iOgs_LtcqVkNzkukX-55" vertex="1">
          <mxGeometry x="20" y="40" width="170" height="210" as="geometry" />
        </mxCell>
        <mxCell id="hS6iOgs_LtcqVkNzkukX-25" value="" style="rounded=0;whiteSpace=wrap;html=1;" parent="hS6iOgs_LtcqVkNzkukX-55" vertex="1">
          <mxGeometry x="32" y="63" width="148" height="20" as="geometry" />
        </mxCell>
        <mxCell id="hS6iOgs_LtcqVkNzkukX-26" value="차량 번호" style="text;html=1;align=left;verticalAlign=middle;whiteSpace=wrap;rounded=0;fontStyle=1" parent="hS6iOgs_LtcqVkNzkukX-55" vertex="1">
          <mxGeometry x="32" y="40" width="60" height="30" as="geometry" />
        </mxCell>
        <mxCell id="hS6iOgs_LtcqVkNzkukX-28" value="비밀 번호" style="text;html=1;align=left;verticalAlign=middle;whiteSpace=wrap;rounded=0;fontStyle=1" parent="hS6iOgs_LtcqVkNzkukX-55" vertex="1">
          <mxGeometry x="32" y="81" width="60" height="30" as="geometry" />
        </mxCell>
        <mxCell id="hS6iOgs_LtcqVkNzkukX-29" value="비밀 번호 확인" style="text;html=1;align=left;verticalAlign=middle;whiteSpace=wrap;rounded=0;fontStyle=1" parent="hS6iOgs_LtcqVkNzkukX-55" vertex="1">
          <mxGeometry x="32" y="122" width="90" height="30" as="geometry" />
        </mxCell>
        <mxCell id="hS6iOgs_LtcqVkNzkukX-31" value="" style="rounded=0;whiteSpace=wrap;html=1;" parent="hS6iOgs_LtcqVkNzkukX-55" vertex="1">
          <mxGeometry x="32" y="105" width="148" height="20" as="geometry" />
        </mxCell>
        <mxCell id="hS6iOgs_LtcqVkNzkukX-32" value="" style="rounded=0;whiteSpace=wrap;html=1;" parent="hS6iOgs_LtcqVkNzkukX-55" vertex="1">
          <mxGeometry x="32" y="147" width="148" height="20" as="geometry" />
        </mxCell>
        <mxCell id="hS6iOgs_LtcqVkNzkukX-34" value="결제하기" style="text;html=1;align=center;verticalAlign=middle;whiteSpace=wrap;rounded=0;strokeColor=default;" parent="hS6iOgs_LtcqVkNzkukX-55" vertex="1">
          <mxGeometry x="125.5" y="220" width="54.5" height="20" as="geometry" />
        </mxCell>
        <mxCell id="hS6iOgs_LtcqVkNzkukX-41" value="등록기간" style="text;html=1;align=center;verticalAlign=middle;whiteSpace=wrap;rounded=0;fontStyle=1" parent="hS6iOgs_LtcqVkNzkukX-55" vertex="1">
          <mxGeometry x="31" y="166" width="60" height="30" as="geometry" />
        </mxCell>
        <mxCell id="hS6iOgs_LtcqVkNzkukX-43" value="1주일(**,***원)" style="text;html=1;align=center;verticalAlign=middle;whiteSpace=wrap;rounded=0;fontSize=10;strokeColor=default;" parent="hS6iOgs_LtcqVkNzkukX-55" vertex="1">
          <mxGeometry x="31" y="190" width="88" height="20" as="geometry" />
        </mxCell>
        <mxCell id="hS6iOgs_LtcqVkNzkukX-50" value="" style="rounded=0;whiteSpace=wrap;html=1;fillColor=none;" parent="hS6iOgs_LtcqVkNzkukX-55" vertex="1">
          <mxGeometry x="125.5" y="190" width="15" height="20" as="geometry" />
        </mxCell>
        <mxCell id="hS6iOgs_LtcqVkNzkukX-49" value="" style="triangle;whiteSpace=wrap;html=1;direction=south;" parent="hS6iOgs_LtcqVkNzkukX-55" vertex="1">
          <mxGeometry x="128" y="196" width="10" height="10" as="geometry" />
        </mxCell>
        <mxCell id="hS6iOgs_LtcqVkNzkukX-53" value="**,*** 원" style="text;html=1;align=right;verticalAlign=middle;whiteSpace=wrap;rounded=0;" parent="hS6iOgs_LtcqVkNzkukX-55" vertex="1">
          <mxGeometry x="30" y="215" width="90" height="30" as="geometry" />
        </mxCell>
        <mxCell id="hS6iOgs_LtcqVkNzkukX-56" value="" style="group" parent="1" vertex="1" connectable="0">
          <mxGeometry x="870" y="30" width="210" height="270" as="geometry" />
        </mxCell>
        <mxCell id="hS6iOgs_LtcqVkNzkukX-36" value="" style="rounded=0;whiteSpace=wrap;html=1;" parent="hS6iOgs_LtcqVkNzkukX-56" vertex="1">
          <mxGeometry width="210" height="270" as="geometry" />
        </mxCell>
        <mxCell id="hS6iOgs_LtcqVkNzkukX-37" value="결제" style="text;html=1;align=left;verticalAlign=middle;whiteSpace=wrap;rounded=0;fontStyle=1;fontSize=16;" parent="hS6iOgs_LtcqVkNzkukX-56" vertex="1">
          <mxGeometry x="10" y="10" width="100" height="30" as="geometry" />
        </mxCell>
        <mxCell id="hS6iOgs_LtcqVkNzkukX-51" value="&lt;font style=&quot;font-size: 14px;&quot;&gt;&lt;b&gt;카드를 IC 방향으로&lt;/b&gt;&lt;/font&gt;&lt;div&gt;&lt;font style=&quot;font-size: 14px;&quot;&gt;&lt;b&gt;삽입해 주세요&lt;/b&gt;&lt;/font&gt;&lt;/div&gt;" style="text;html=1;align=center;verticalAlign=middle;whiteSpace=wrap;rounded=0;" parent="hS6iOgs_LtcqVkNzkukX-56" vertex="1">
          <mxGeometry x="30" y="63" width="150" height="30" as="geometry" />
        </mxCell>
        <mxCell id="hS6iOgs_LtcqVkNzkukX-52" value="그림" style="rounded=0;whiteSpace=wrap;html=1;" parent="hS6iOgs_LtcqVkNzkukX-56" vertex="1">
          <mxGeometry x="30" y="98" width="150" height="142" as="geometry" />
        </mxCell>
        <mxCell id="hS6iOgs_LtcqVkNzkukX-39" style="edgeStyle=orthogonalEdgeStyle;rounded=0;orthogonalLoop=1;jettySize=auto;html=1;exitX=1;exitY=0.5;exitDx=0;exitDy=0;entryX=-0.001;entryY=0.076;entryDx=0;entryDy=0;entryPerimeter=0;" parent="1" source="hS6iOgs_LtcqVkNzkukX-34" target="hS6iOgs_LtcqVkNzkukX-36" edge="1">
          <mxGeometry relative="1" as="geometry">
            <Array as="points">
              <mxPoint x="850" y="260" />
              <mxPoint x="850" y="51" />
            </Array>
          </mxGeometry>
        </mxCell>
        <mxCell id="tHhZRvzUOpwLmbIRdvHh-26" style="edgeStyle=orthogonalEdgeStyle;rounded=0;orthogonalLoop=1;jettySize=auto;html=1;exitX=1;exitY=0.5;exitDx=0;exitDy=0;entryX=0.25;entryY=1;entryDx=0;entryDy=0;" edge="1" parent="1" source="tHhZRvzUOpwLmbIRdvHh-11" target="hS6iOgs_LtcqVkNzkukX-36">
          <mxGeometry relative="1" as="geometry" />
        </mxCell>
        <mxCell id="tHhZRvzUOpwLmbIRdvHh-24" style="edgeStyle=orthogonalEdgeStyle;rounded=0;orthogonalLoop=1;jettySize=auto;html=1;exitX=1;exitY=0.5;exitDx=0;exitDy=0;entryX=-0.008;entryY=0.084;entryDx=0;entryDy=0;entryPerimeter=0;" edge="1" parent="1" source="hS6iOgs_LtcqVkNzkukX-20" target="hS6iOgs_LtcqVkNzkukX-22">
          <mxGeometry relative="1" as="geometry">
            <Array as="points">
              <mxPoint x="610" y="120" />
              <mxPoint x="610" y="53" />
            </Array>
          </mxGeometry>
        </mxCell>
        <mxCell id="tHhZRvzUOpwLmbIRdvHh-27" value="" style="group" vertex="1" connectable="0" parent="1">
          <mxGeometry x="80" y="360" width="212.81" height="310" as="geometry" />
        </mxCell>
        <mxCell id="hS6iOgs_LtcqVkNzkukX-75" value="" style="rounded=0;whiteSpace=wrap;html=1;" parent="tHhZRvzUOpwLmbIRdvHh-27" vertex="1">
          <mxGeometry width="210" height="270" as="geometry" />
        </mxCell>
        <mxCell id="hS6iOgs_LtcqVkNzkukX-76" value="** 주차장" style="text;html=1;align=left;verticalAlign=middle;whiteSpace=wrap;rounded=0;fontStyle=1;fontSize=16;" parent="tHhZRvzUOpwLmbIRdvHh-27" vertex="1">
          <mxGeometry x="8.75" y="10" width="87.5" height="30" as="geometry" />
        </mxCell>
        <mxCell id="hS6iOgs_LtcqVkNzkukX-77" value="&lt;font style=&quot;font-size: 14px;&quot;&gt;안녕히 가십시오.&lt;/font&gt;&lt;div&gt;&lt;font style=&quot;font-size: 16px;&quot;&gt;(차량 번호)&lt;/font&gt;&lt;/div&gt;" style="text;html=1;align=center;verticalAlign=middle;whiteSpace=wrap;rounded=0;fontSize=11;fontStyle=1" parent="tHhZRvzUOpwLmbIRdvHh-27" vertex="1">
          <mxGeometry x="28.4375" y="29" width="148.75" height="60" as="geometry" />
        </mxCell>
        <mxCell id="hS6iOgs_LtcqVkNzkukX-86" value="&amp;lt;Client4 -&amp;nbsp;&lt;span style=&quot;background-color: transparent; color: light-dark(rgb(0, 0, 0), rgb(255, 255, 255));&quot;&gt;출구 정산 키오스크&amp;gt;&lt;/span&gt;" style="text;html=1;align=center;verticalAlign=middle;resizable=0;points=[];autosize=1;strokeColor=none;fillColor=none;fontSize=14;fontStyle=1" parent="tHhZRvzUOpwLmbIRdvHh-27" vertex="1">
          <mxGeometry x="-7.189999999999998" y="280" width="220" height="30" as="geometry" />
        </mxCell>
        <mxCell id="hS6iOgs_LtcqVkNzkukX-87" value="&lt;div style=&quot;line-height: 150%;&quot;&gt;입차 일시&lt;div&gt;MM월 dd일&amp;nbsp;&lt;span style=&quot;background-color: transparent; color: light-dark(rgb(0, 0, 0), rgb(255, 255, 255));&quot;&gt;hh시 mm분&lt;/span&gt;&lt;/div&gt;&lt;/div&gt;" style="text;html=1;align=left;verticalAlign=middle;whiteSpace=wrap;rounded=0;fontSize=12;fontStyle=1" parent="tHhZRvzUOpwLmbIRdvHh-27" vertex="1">
          <mxGeometry x="17.5" y="150" width="175" height="30" as="geometry" />
        </mxCell>
        <mxCell id="hS6iOgs_LtcqVkNzkukX-88" value="&lt;div style=&quot;line-height: 150%;&quot;&gt;출차 일시&lt;div&gt;MM월 dd일&amp;nbsp;&lt;span style=&quot;color: light-dark(rgb(0, 0, 0), rgb(255, 255, 255)); background-color: transparent;&quot;&gt;hh시 mm분&lt;/span&gt;&lt;/div&gt;&lt;/div&gt;" style="text;html=1;align=left;verticalAlign=middle;whiteSpace=wrap;rounded=0;fontSize=12;fontStyle=1" parent="tHhZRvzUOpwLmbIRdvHh-27" vertex="1">
          <mxGeometry x="17.5" y="190" width="175" height="30" as="geometry" />
        </mxCell>
        <mxCell id="hS6iOgs_LtcqVkNzkukX-89" value="주차 시간&lt;div style=&quot;line-height: 150%;&quot;&gt;hh시간 mm분&lt;/div&gt;" style="text;html=1;align=left;verticalAlign=middle;whiteSpace=wrap;rounded=0;fontSize=12;fontStyle=1" parent="tHhZRvzUOpwLmbIRdvHh-27" vertex="1">
          <mxGeometry x="17.5" y="230" width="175" height="30" as="geometry" />
        </mxCell>
        <mxCell id="hS6iOgs_LtcqVkNzkukX-90" value="결제 금액 : **,***원" style="text;html=1;align=left;verticalAlign=middle;whiteSpace=wrap;rounded=0;fontSize=12;fontStyle=1" parent="tHhZRvzUOpwLmbIRdvHh-27" vertex="1">
          <mxGeometry x="17.5" y="118" width="175" height="30" as="geometry" />
        </mxCell>
        <mxCell id="hS6iOgs_LtcqVkNzkukX-91" value="&lt;font&gt;&lt;b&gt;카드를 IC 방향으로&lt;/b&gt;&lt;/font&gt;&lt;div&gt;&lt;font&gt;&lt;b&gt;삽입해 주세요&lt;/b&gt;&lt;/font&gt;&lt;/div&gt;" style="text;html=1;align=center;verticalAlign=middle;whiteSpace=wrap;rounded=0;fontSize=12;" parent="tHhZRvzUOpwLmbIRdvHh-27" vertex="1">
          <mxGeometry x="39.3775" y="84" width="131.25" height="30" as="geometry" />
        </mxCell>
        <mxCell id="tHhZRvzUOpwLmbIRdvHh-28" value="" style="group" vertex="1" connectable="0" parent="1">
          <mxGeometry x="630" y="360" width="210" height="270" as="geometry" />
        </mxCell>
        <mxCell id="hS6iOgs_LtcqVkNzkukX-62" value="" style="rounded=0;whiteSpace=wrap;html=1;" parent="tHhZRvzUOpwLmbIRdvHh-28" vertex="1">
          <mxGeometry width="210" height="270" as="geometry" />
        </mxCell>
        <mxCell id="hS6iOgs_LtcqVkNzkukX-72" value="" style="rounded=0;whiteSpace=wrap;html=1;" parent="tHhZRvzUOpwLmbIRdvHh-28" vertex="1">
          <mxGeometry x="20" y="40" width="170" height="210" as="geometry" />
        </mxCell>
        <mxCell id="hS6iOgs_LtcqVkNzkukX-63" value="** 주차장" style="text;html=1;align=left;verticalAlign=middle;whiteSpace=wrap;rounded=0;fontStyle=1;fontSize=16;" parent="tHhZRvzUOpwLmbIRdvHh-28" vertex="1">
          <mxGeometry x="10" y="10" width="100" height="30" as="geometry" />
        </mxCell>
        <mxCell id="hS6iOgs_LtcqVkNzkukX-68" value="" style="rounded=0;whiteSpace=wrap;html=1;" parent="tHhZRvzUOpwLmbIRdvHh-28" vertex="1">
          <mxGeometry x="32" y="63" width="148" height="20" as="geometry" />
        </mxCell>
        <mxCell id="hS6iOgs_LtcqVkNzkukX-69" value="" style="rounded=0;whiteSpace=wrap;html=1;" parent="tHhZRvzUOpwLmbIRdvHh-28" vertex="1">
          <mxGeometry x="32" y="105" width="148" height="20" as="geometry" />
        </mxCell>
        <mxCell id="hS6iOgs_LtcqVkNzkukX-70" value="비밀 번호" style="text;html=1;align=left;verticalAlign=middle;whiteSpace=wrap;rounded=0;fontStyle=1" parent="tHhZRvzUOpwLmbIRdvHh-28" vertex="1">
          <mxGeometry x="32" y="81" width="60" height="30" as="geometry" />
        </mxCell>
        <mxCell id="hS6iOgs_LtcqVkNzkukX-71" value="차량 번호" style="text;html=1;align=left;verticalAlign=middle;whiteSpace=wrap;rounded=0;fontStyle=1" parent="tHhZRvzUOpwLmbIRdvHh-28" vertex="1">
          <mxGeometry x="32" y="40" width="60" height="30" as="geometry" />
        </mxCell>
        <mxCell id="tHhZRvzUOpwLmbIRdvHh-7" value="기간 연장" style="text;html=1;align=center;verticalAlign=middle;whiteSpace=wrap;rounded=0;fontStyle=1" vertex="1" parent="tHhZRvzUOpwLmbIRdvHh-28">
          <mxGeometry x="32" y="170" width="60" height="30" as="geometry" />
        </mxCell>
        <mxCell id="tHhZRvzUOpwLmbIRdvHh-8" value="1주일(**,***원)" style="text;html=1;align=center;verticalAlign=middle;whiteSpace=wrap;rounded=0;fontSize=10;strokeColor=default;" vertex="1" parent="tHhZRvzUOpwLmbIRdvHh-28">
          <mxGeometry x="32" y="194" width="88" height="20" as="geometry" />
        </mxCell>
        <mxCell id="tHhZRvzUOpwLmbIRdvHh-9" value="" style="rounded=0;whiteSpace=wrap;html=1;fillColor=none;" vertex="1" parent="tHhZRvzUOpwLmbIRdvHh-28">
          <mxGeometry x="126.5" y="194" width="15" height="20" as="geometry" />
        </mxCell>
        <mxCell id="tHhZRvzUOpwLmbIRdvHh-10" value="**,*** 원" style="text;html=1;align=right;verticalAlign=middle;whiteSpace=wrap;rounded=0;" vertex="1" parent="tHhZRvzUOpwLmbIRdvHh-28">
          <mxGeometry x="31" y="219" width="90" height="30" as="geometry" />
        </mxCell>
        <mxCell id="tHhZRvzUOpwLmbIRdvHh-11" value="결제하기" style="text;html=1;align=center;verticalAlign=middle;whiteSpace=wrap;rounded=0;strokeColor=default;" vertex="1" parent="tHhZRvzUOpwLmbIRdvHh-28">
          <mxGeometry x="126.5" y="224" width="54.5" height="20" as="geometry" />
        </mxCell>
        <mxCell id="tHhZRvzUOpwLmbIRdvHh-12" value="" style="triangle;whiteSpace=wrap;html=1;direction=south;" vertex="1" parent="tHhZRvzUOpwLmbIRdvHh-28">
          <mxGeometry x="129" y="200" width="10" height="10" as="geometry" />
        </mxCell>
        <mxCell id="tHhZRvzUOpwLmbIRdvHh-29" value="" style="group" vertex="1" connectable="0" parent="1">
          <mxGeometry x="392" y="360" width="535.5" height="270" as="geometry" />
        </mxCell>
        <mxCell id="tHhZRvzUOpwLmbIRdvHh-30" value="" style="rounded=0;whiteSpace=wrap;html=1;" vertex="1" parent="tHhZRvzUOpwLmbIRdvHh-29">
          <mxGeometry width="210" height="270" as="geometry" />
        </mxCell>
        <mxCell id="tHhZRvzUOpwLmbIRdvHh-31" value="" style="rounded=0;whiteSpace=wrap;html=1;" vertex="1" parent="tHhZRvzUOpwLmbIRdvHh-29">
          <mxGeometry x="20" y="40" width="170" height="210" as="geometry" />
        </mxCell>
        <mxCell id="tHhZRvzUOpwLmbIRdvHh-32" value="사전 정산" style="text;html=1;align=left;verticalAlign=middle;whiteSpace=wrap;rounded=0;fontStyle=1;fontSize=16;" vertex="1" parent="tHhZRvzUOpwLmbIRdvHh-29">
          <mxGeometry x="10" y="10" width="100" height="30" as="geometry" />
        </mxCell>
        <mxCell id="tHhZRvzUOpwLmbIRdvHh-33" value="" style="rounded=0;whiteSpace=wrap;html=1;" vertex="1" parent="tHhZRvzUOpwLmbIRdvHh-29">
          <mxGeometry x="32" y="63" width="98" height="27" as="geometry" />
        </mxCell>
        <mxCell id="tHhZRvzUOpwLmbIRdvHh-36" value="차량 번호" style="text;html=1;align=left;verticalAlign=middle;whiteSpace=wrap;rounded=0;fontStyle=1" vertex="1" parent="tHhZRvzUOpwLmbIRdvHh-29">
          <mxGeometry x="32" y="40" width="60" height="30" as="geometry" />
        </mxCell>
        <mxCell id="tHhZRvzUOpwLmbIRdvHh-40" value="**,*** 원" style="text;html=1;align=right;verticalAlign=middle;whiteSpace=wrap;rounded=0;" vertex="1" parent="tHhZRvzUOpwLmbIRdvHh-29">
          <mxGeometry x="31" y="219" width="90" height="30" as="geometry" />
        </mxCell>
        <mxCell id="tHhZRvzUOpwLmbIRdvHh-41" value="결제하기" style="text;html=1;align=center;verticalAlign=middle;whiteSpace=wrap;rounded=0;strokeColor=default;" vertex="1" parent="tHhZRvzUOpwLmbIRdvHh-29">
          <mxGeometry x="126.5" y="224" width="54.5" height="20" as="geometry" />
        </mxCell>
        <mxCell id="tHhZRvzUOpwLmbIRdvHh-53" value="입력" style="rounded=0;whiteSpace=wrap;html=1;fontStyle=1" vertex="1" parent="tHhZRvzUOpwLmbIRdvHh-29">
          <mxGeometry x="141" y="65.75" width="40" height="21.5" as="geometry" />
        </mxCell>
        <mxCell id="tHhZRvzUOpwLmbIRdvHh-54" value="&lt;div style=&quot;line-height: 150%;&quot;&gt;입차 일시&lt;div&gt;MM월 dd일&amp;nbsp;&lt;span style=&quot;background-color: transparent; color: light-dark(rgb(0, 0, 0), rgb(255, 255, 255));&quot;&gt;hh시 mm분&lt;/span&gt;&lt;/div&gt;&lt;/div&gt;" style="text;html=1;align=left;verticalAlign=middle;whiteSpace=wrap;rounded=0;fontSize=12;fontStyle=1" vertex="1" parent="tHhZRvzUOpwLmbIRdvHh-29">
          <mxGeometry x="31" y="104" width="175" height="30" as="geometry" />
        </mxCell>
        <mxCell id="tHhZRvzUOpwLmbIRdvHh-55" value="&lt;div style=&quot;line-height: 150%;&quot;&gt;출차 일시&lt;div&gt;MM월 dd일&amp;nbsp;&lt;span style=&quot;color: light-dark(rgb(0, 0, 0), rgb(255, 255, 255)); background-color: transparent;&quot;&gt;hh시 mm분&lt;/span&gt;&lt;/div&gt;&lt;/div&gt;" style="text;html=1;align=left;verticalAlign=middle;whiteSpace=wrap;rounded=0;fontSize=12;fontStyle=1" vertex="1" parent="tHhZRvzUOpwLmbIRdvHh-29">
          <mxGeometry x="31" y="144" width="175" height="30" as="geometry" />
        </mxCell>
        <mxCell id="tHhZRvzUOpwLmbIRdvHh-56" value="주차 시간&lt;div style=&quot;line-height: 150%;&quot;&gt;hh시간 mm분&lt;/div&gt;" style="text;html=1;align=left;verticalAlign=middle;whiteSpace=wrap;rounded=0;fontSize=12;fontStyle=1" vertex="1" parent="tHhZRvzUOpwLmbIRdvHh-29">
          <mxGeometry x="31" y="184" width="175" height="30" as="geometry" />
        </mxCell>
        <mxCell id="tHhZRvzUOpwLmbIRdvHh-48" style="edgeStyle=orthogonalEdgeStyle;rounded=0;orthogonalLoop=1;jettySize=auto;html=1;exitX=1;exitY=0.5;exitDx=0;exitDy=0;entryX=0.25;entryY=1;entryDx=0;entryDy=0;" edge="1" parent="1" source="tHhZRvzUOpwLmbIRdvHh-41" target="hS6iOgs_LtcqVkNzkukX-36">
          <mxGeometry relative="1" as="geometry">
            <Array as="points">
              <mxPoint x="610" y="594" />
              <mxPoint x="610" y="650" />
              <mxPoint x="923" y="650" />
            </Array>
          </mxGeometry>
        </mxCell>
        <mxCell id="tHhZRvzUOpwLmbIRdvHh-52" style="edgeStyle=orthogonalEdgeStyle;rounded=0;orthogonalLoop=1;jettySize=auto;html=1;exitX=0.5;exitY=1;exitDx=0;exitDy=0;entryX=0.5;entryY=0;entryDx=0;entryDy=0;" edge="1" parent="1" source="tHhZRvzUOpwLmbIRdvHh-25" target="tHhZRvzUOpwLmbIRdvHh-30">
          <mxGeometry relative="1" as="geometry" />
        </mxCell>
        <mxCell id="tHhZRvzUOpwLmbIRdvHh-67" style="edgeStyle=orthogonalEdgeStyle;rounded=0;orthogonalLoop=1;jettySize=auto;html=1;exitX=1;exitY=0.5;exitDx=0;exitDy=0;entryX=0.25;entryY=0;entryDx=0;entryDy=0;" edge="1" parent="1" source="hS6iOgs_LtcqVkNzkukX-21" target="hS6iOgs_LtcqVkNzkukX-62">
          <mxGeometry relative="1" as="geometry">
            <Array as="points">
              <mxPoint x="610" y="178" />
              <mxPoint x="610" y="330" />
              <mxPoint x="683" y="330" />
            </Array>
          </mxGeometry>
        </mxCell>
      </root>
    </mxGraphModel>
  </diagram>
</mxfile>
